<svg width="235" height="66" viewBox="0 0 235 66" fill="none" xmlns="http://www.w3.org/2000/svg">
<path d="M21.3182 12H19.1818C19.0227 11.2045 18.7348 10.4697 18.3182 9.79545C17.9091 9.11364 17.3939 8.51894 16.7727 8.01136C16.1515 7.50379 15.447 7.10985 14.6591 6.82954C13.8712 6.54924 13.0189 6.40909 12.1023 6.40909C10.6326 6.40909 9.29167 6.79167 8.07955 7.55682C6.875 8.32197 5.90909 9.44697 5.18182 10.9318C4.46212 12.4091 4.10227 14.2197 4.10227 16.3636C4.10227 18.5227 4.46212 20.3409 5.18182 21.8182C5.90909 23.2955 6.875 24.4167 8.07955 25.1818C9.29167 25.9394 10.6326 26.3182 12.1023 26.3182C13.0189 26.3182 13.8712 26.178 14.6591 25.8977C15.447 25.6174 16.1515 25.2273 16.7727 24.7273C17.3939 24.2197 17.9091 23.625 18.3182 22.9432C18.7348 22.2614 19.0227 21.5227 19.1818 20.7273H21.3182C21.1288 21.7955 20.7727 22.7917 20.25 23.7159C19.7348 24.6326 19.0758 25.4356 18.2727 26.125C17.4773 26.8144 16.5606 27.3523 15.5227 27.7386C14.4848 28.125 13.3447 28.3182 12.1023 28.3182C10.1477 28.3182 8.41288 27.8295 6.89773 26.8523C5.38258 25.8674 4.19318 24.4811 3.32955 22.6932C2.47348 20.9053 2.04545 18.7955 2.04545 16.3636C2.04545 13.9318 2.47348 11.822 3.32955 10.0341C4.19318 8.24621 5.38258 6.86364 6.89773 5.88636C8.41288 4.90151 10.1477 4.40909 12.1023 4.40909C13.3447 4.40909 14.4848 4.60227 15.5227 4.98864C16.5606 5.36742 17.4773 5.9053 18.2727 6.60227C19.0758 7.29167 19.7348 8.0947 20.25 9.01136C20.7727 9.92803 21.1288 10.9242 21.3182 12ZM56.946 10.5455C56.8172 9.25 56.2453 8.2197 55.2301 7.45454C54.215 6.68939 52.9384 6.30682 51.4006 6.30682C50.3172 6.30682 49.3627 6.49242 48.5369 6.86364C47.7188 7.23485 47.0748 7.75 46.6051 8.40909C46.143 9.06061 45.9119 9.80303 45.9119 10.6364C45.9119 11.25 46.0445 11.7879 46.3097 12.25C46.5748 12.7121 46.9309 13.1098 47.3778 13.4432C47.8324 13.7689 48.3324 14.0492 48.8778 14.2841C49.4309 14.5189 49.9877 14.7159 50.5483 14.875L53.0028 15.5795C53.7453 15.7841 54.4877 16.0455 55.2301 16.3636C55.9725 16.6818 56.6506 17.0833 57.2642 17.5682C57.8854 18.0455 58.3816 18.6326 58.7528 19.3295C59.1316 20.0189 59.321 20.8485 59.321 21.8182C59.321 23.0606 58.9991 24.178 58.3551 25.1705C57.7112 26.1629 56.7869 26.9508 55.5824 27.5341C54.3778 28.1098 52.9347 28.3977 51.2528 28.3977C49.6695 28.3977 48.2945 28.1364 47.1278 27.6136C45.9612 27.0833 45.0445 26.3523 44.3778 25.4205C43.7112 24.4886 43.3362 23.4091 43.2528 22.1818H45.4347C45.5104 23.0985 45.8134 23.875 46.3438 24.5114C46.8741 25.1477 47.5634 25.6326 48.4119 25.9659C49.2604 26.2917 50.2074 26.4545 51.2528 26.4545C52.4119 26.4545 53.4422 26.2614 54.3438 25.875C55.2528 25.4811 55.965 24.9356 56.4801 24.2386C57.0028 23.5341 57.2642 22.7159 57.2642 21.7841C57.2642 20.9962 57.0597 20.3371 56.6506 19.8068C56.2415 19.2689 55.6695 18.8182 54.9347 18.4545C54.2074 18.0909 53.3627 17.7689 52.4006 17.4886L49.6165 16.6705C47.7907 16.125 46.3741 15.3712 45.3665 14.4091C44.3589 13.447 43.8551 12.2197 43.8551 10.7273C43.8551 9.47727 44.1884 8.37879 44.8551 7.43182C45.5294 6.47727 46.4384 5.73485 47.5824 5.20454C48.7339 4.66667 50.0256 4.39773 51.4574 4.39773C52.9044 4.39773 54.1847 4.66288 55.2983 5.19318C56.4119 5.72348 57.2945 6.45454 57.946 7.38636C58.6051 8.3106 58.9574 9.36364 59.0028 10.5455H56.946ZM64.4347 4.72727H66.8892L75.3324 25H75.5369L83.9801 4.72727H86.4347V28H84.4347V9.21591H84.2528L76.4006 28H74.4688L66.6165 9.21591H66.4347V28H64.4347V4.72727ZM94.7472 4.72727V28H92.6222V4.72727H94.7472ZM119.162 12H117.026C116.866 11.2045 116.579 10.4697 116.162 9.79545C115.753 9.11364 115.238 8.51894 114.616 8.01136C113.995 7.50379 113.291 7.10985 112.503 6.82954C111.715 6.54924 110.863 6.40909 109.946 6.40909C108.476 6.40909 107.135 6.79167 105.923 7.55682C104.719 8.32197 103.753 9.44697 103.026 10.9318C102.306 12.4091 101.946 14.2197 101.946 16.3636C101.946 18.5227 102.306 20.3409 103.026 21.8182C103.753 23.2955 104.719 24.4167 105.923 25.1818C107.135 25.9394 108.476 26.3182 109.946 26.3182C110.863 26.3182 111.715 26.178 112.503 25.8977C113.291 25.6174 113.995 25.2273 114.616 24.7273C115.238 24.2197 115.753 23.625 116.162 22.9432C116.579 22.2614 116.866 21.5227 117.026 20.7273H119.162C118.973 21.7955 118.616 22.7917 118.094 23.7159C117.579 24.6326 116.92 25.4356 116.116 26.125C115.321 26.8144 114.404 27.3523 113.366 27.7386C112.329 28.125 111.188 28.3182 109.946 28.3182C107.991 28.3182 106.257 27.8295 104.741 26.8523C103.226 25.8674 102.037 24.4811 101.173 22.6932C100.317 20.9053 99.8892 18.7955 99.8892 16.3636C99.8892 13.9318 100.317 11.822 101.173 10.0341C102.037 8.24621 103.226 6.86364 104.741 5.88636C106.257 4.90151 107.991 4.40909 109.946 4.40909C111.188 4.40909 112.329 4.60227 113.366 4.98864C114.404 5.36742 115.321 5.9053 116.116 6.60227C116.92 7.29167 117.579 8.0947 118.094 9.01136C118.616 9.92803 118.973 10.9242 119.162 12ZM21.3182 45H19.1818C19.0227 44.2045 18.7348 43.4697 18.3182 42.7955C17.9091 42.1136 17.3939 41.5189 16.7727 41.0114C16.1515 40.5038 15.447 40.1098 14.6591 39.8295C13.8712 39.5492 13.0189 39.4091 12.1023 39.4091C10.6326 39.4091 9.29167 39.7917 8.07955 40.5568C6.875 41.322 5.90909 42.447 5.18182 43.9318C4.46212 45.4091 4.10227 47.2197 4.10227 49.3636C4.10227 51.5227 4.46212 53.3409 5.18182 54.8182C5.90909 56.2955 6.875 57.4167 8.07955 58.1818C9.29167 58.9394 10.6326 59.3182 12.1023 59.3182C13.0189 59.3182 13.8712 59.178 14.6591 58.8977C15.447 58.6174 16.1515 58.2273 16.7727 57.7273C17.3939 57.2197 17.9091 56.625 18.3182 55.9432C18.7348 55.2614 19.0227 54.5227 19.1818 53.7273H21.3182C21.1288 54.7955 20.7727 55.7917 20.25 56.7159C19.7348 57.6326 19.0758 58.4356 18.2727 59.125C17.4773 59.8144 16.5606 60.3523 15.5227 60.7386C14.4848 61.125 13.3447 61.3182 12.1023 61.3182C10.1477 61.3182 8.41288 60.8295 6.89773 59.8523C5.38258 58.8674 4.19318 57.4811 3.32955 55.6932C2.47348 53.9053 2.04545 51.7955 2.04545 49.3636C2.04545 46.9318 2.47348 44.822 3.32955 43.0341C4.19318 41.2462 5.38258 39.8636 6.89773 38.8864C8.41288 37.9015 10.1477 37.4091 12.1023 37.4091C13.3447 37.4091 14.4848 37.6023 15.5227 37.9886C16.5606 38.3674 17.4773 38.9053 18.2727 39.6023C19.0758 40.2917 19.7348 41.0947 20.25 42.0114C20.7727 42.928 21.1288 43.9242 21.3182 45ZM62.4347 37.7273V61H60.3665L46.6165 41.5114H46.4347V61H44.3097V37.7273H46.3665L60.1619 57.2386H60.3438V37.7273H62.4347ZM86.7472 37.7273V61H84.679L70.929 41.5114H70.7472V61H68.6222V37.7273H70.679L84.4744 57.2386H84.6562V37.7273H86.7472ZM92.9347 61V37.7273H106.435V39.6364H95.0597V48.3977H105.719V50.3068H95.0597V59.0909H106.662V61H92.9347ZM130.162 45H128.026C127.866 44.2045 127.579 43.4697 127.162 42.7955C126.753 42.1136 126.238 41.5189 125.616 41.0114C124.995 40.5038 124.291 40.1098 123.503 39.8295C122.715 39.5492 121.863 39.4091 120.946 39.4091C119.476 39.4091 118.135 39.7917 116.923 40.5568C115.719 41.322 114.753 42.447 114.026 43.9318C113.306 45.4091 112.946 47.2197 112.946 49.3636C112.946 51.5227 113.306 53.3409 114.026 54.8182C114.753 56.2955 115.719 57.4167 116.923 58.1818C118.135 58.9394 119.476 59.3182 120.946 59.3182C121.863 59.3182 122.715 59.178 123.503 58.8977C124.291 58.6174 124.995 58.2273 125.616 57.7273C126.238 57.2197 126.753 56.625 127.162 55.9432C127.579 55.2614 127.866 54.5227 128.026 53.7273H130.162C129.973 54.7955 129.616 55.7917 129.094 56.7159C128.579 57.6326 127.92 58.4356 127.116 59.125C126.321 59.8144 125.404 60.3523 124.366 60.7386C123.329 61.125 122.188 61.3182 120.946 61.3182C118.991 61.3182 117.257 60.8295 115.741 59.8523C114.226 58.8674 113.037 57.4811 112.173 55.6932C111.317 53.9053 110.889 51.7955 110.889 49.3636C110.889 46.9318 111.317 44.822 112.173 43.0341C113.037 41.2462 114.226 39.8636 115.741 38.8864C117.257 37.9015 118.991 37.4091 120.946 37.4091C122.188 37.4091 123.329 37.6023 124.366 37.9886C125.404 38.3674 126.321 38.9053 127.116 39.6023C127.92 40.2917 128.579 41.0947 129.094 42.0114C129.616 42.928 129.973 43.9242 130.162 45ZM133.744 39.6364V37.7273H150.619V39.6364H143.244V61H141.119V39.6364H133.744ZM157.528 37.7273V61H155.403V37.7273H157.528ZM199.841 37.7273V61H197.773L184.023 41.5114H183.841V61H181.716V37.7273H183.773L197.568 57.2386H197.75V37.7273H199.841Z" fill="white"/>
<path d="M42.6547 23.1278C42.2021 22.5222 41.5326 22.0566 40.5609 22.2084C38.315 22.5594 39.5081 20.8047 37.8939 21.5066C36.6025 22.0681 35.6713 23.6589 35.3672 24.3842C35.2736 23.9397 34.918 22.9664 34.2443 22.6295C33.402 22.2084 33.1213 22.9103 32.63 22.2084C32.1387 21.5066 32.1387 20.524 31.7176 19.5414C31.2965 18.5588 33.1213 17.0849 34.2443 17.6464C35.3672 18.2079 36.0691 17.857 36.6305 18.6992C37.192 19.5414 37.8939 20.5942 37.8939 17.6464C37.8939 14.6986 39.2976 13.3651 39.9292 13.4353C40.5609 13.5055 42.5261 12.8035 42.1752 12.1018C41.8242 11.4001 39.9292 11.049 39.9292 10.4173C39.9292 9.78568 40.7715 8.45233 39.9292 7.82067C39.087 7.189 36.9815 5.92567 35.3672 6.06604C33.753 6.20641 33.2556 6.83849 33.2556 7.39997C33.2556 7.96145 35.3672 9.01439 34.2443 9.71587C33.1213 10.4173 29.4717 11.5399 29.4717 10.4173C29.4717 9.29475 29.2611 6.90846 29.963 6.90846C30.6648 6.90846 30.8754 5.15384 31.2965 5.22402C31.7176 5.29421 33.4722 4.52262 34.2443 4.87332C34.4809 4.98084 35.2586 4.77834 36.1343 4.41344M42.6547 23.1278C44.1286 21.1347 45 18.6691 45 16C45 10.4569 41.2417 5.79168 36.1343 4.41344M42.6547 23.1278C40.4689 26.0835 36.9583 28 33 28C32.2953 28 31.6048 27.9393 30.9334 27.8227M30.9334 27.8227C31.0241 27.3006 31.1428 26.8692 31.2965 26.6301C31.9281 25.6475 34.0337 26.3494 34.2443 25.8581C34.4548 25.3668 33.5424 24.8053 32.63 24.3842C31.7176 23.9631 30.1735 23.542 29.963 21.5066C29.7524 19.4712 28.7698 19.8221 28.5593 19.5414C28.3487 19.2607 25.8922 18.4886 25.12 17.0849C24.3477 15.6812 25.1202 13.2949 25.12 12.6633C25.1198 12.2168 23.1837 11.7374 21.8777 11.4867M30.9334 27.8227C25.2908 26.8433 21 21.9227 21 16C21 14.4036 21.3117 12.8799 21.8777 11.4867M21.8777 11.4867C23.6611 7.09599 27.969 4 33 4C34.0844 4 35.1351 4.14383 36.1343 4.41344" stroke="#F2F2F2" stroke-linecap="square" stroke-linejoin="round"/>
<path d="M181.845 47.0671C178.868 47.3796 173.732 47.8541 170 47.8541C166.268 47.8541 161.132 47.3795 158.155 47.067M181.845 47.0671C181.894 47.3719 181.932 47.6806 181.958 47.9927M181.845 47.0671C181.682 46.0597 181.393 45.0944 180.996 44.1877M181.958 47.9927C181.986 48.3248 182 48.6607 182 49C182 49.5833 181.958 50.1569 181.878 50.7179M181.958 47.9927C179 48.3049 173.78 48.7916 170 48.7916C166.22 48.7916 161 48.3047 158.042 47.9926M181.878 50.7179C178.906 51.0304 173.746 51.5084 170 51.5084C166.254 51.5084 161.094 51.0303 158.122 50.7178M181.878 50.7179C181.832 51.0409 181.772 51.3598 181.701 51.674M181.701 51.674C178.704 51.9864 173.673 52.4459 170 52.4459C166.328 52.4459 161.295 51.9863 158.299 51.6738M181.701 51.674C181.563 52.2798 181.379 52.8682 181.154 53.4354C180.572 54.8966 179.712 56.2166 178.638 57.3297M178.638 57.3297C176.456 59.5925 173.392 61 170 61C166.608 61 163.544 59.5925 161.362 57.3296M178.638 57.3297C175.88 57.575 172.6 57.8053 170 57.8053C167.401 57.8053 164.12 57.575 161.362 57.3296M161.362 57.3296C160.288 56.2165 159.428 54.8965 158.846 53.4353C158.621 52.8681 158.437 52.2797 158.299 51.6738M158.299 51.6738C158.227 51.3597 158.168 51.0408 158.122 50.7178M158.122 50.7178C158.042 50.1568 158 49.5833 158 49C158 48.6607 158.014 48.3247 158.042 47.9926M158.042 47.9926C158.068 47.6805 158.106 47.3718 158.155 47.067M158.155 47.067C158.318 46.0596 158.607 45.0943 159.004 44.1876M159.004 44.1876C162.04 44.4939 166.602 44.8873 170 44.8873C173.398 44.8873 177.96 44.4939 180.996 44.1877M159.004 44.1876C159.564 42.9103 160.34 41.7492 161.285 40.7505M161.285 40.7505C163.472 38.4408 166.568 37 170 37C173.432 37 176.528 38.4408 178.715 40.7506M161.285 40.7505C164.059 40.9984 167.377 41.233 170 41.233C172.624 41.233 175.941 40.9985 178.715 40.7506M178.715 40.7506C179.66 41.7493 180.436 42.9103 180.996 44.1877" stroke="#F2F2F2" stroke-linejoin="round"/>
<path d="M41.7707 52.4183C44.7941 55.9684 46.2043 58.9519 45.088 60.0173C44.0831 60.9764 41.2605 60.1622 37.7404 58.127M41.7707 52.4183C42.6861 48.4617 40.8953 44.2269 37.1471 42.2091C34.6125 40.8446 31.7245 40.7854 29.2546 41.8M41.7707 52.4183C41.611 53.1085 41.3689 53.7904 41.0405 54.4505M29.2546 41.8C25.4782 39.5268 22.4091 38.5731 21.352 39.5821C20.2853 40.6002 21.5255 43.3697 24.2759 46.7115M29.2546 41.8C28.6279 42.0575 28.028 42.3841 27.4677 42.7761M27.4677 42.7761C25.2717 41.4206 23.6689 40.7978 23.2065 41.239C22.7389 41.6853 23.5307 43.1318 25.175 45.0836M27.4677 42.7761C26.5904 43.3899 25.81 44.1639 25.175 45.0836M25.175 45.0836C24.9817 45.3635 24.8019 45.6569 24.6369 45.9634C24.5043 46.2096 24.384 46.4593 24.2759 46.7115M25.175 45.0836C26.672 46.8606 28.8758 49.0565 31.4789 51.2976C34.3095 53.7346 37.0568 55.7468 39.1714 57.0014M24.2759 46.7115C25.8217 48.5897 27.8445 50.6487 30.2029 52.6792C32.8046 54.919 35.4236 56.7875 37.7404 58.127M24.2759 46.7115C22.4118 51.0594 24.1461 56.1883 28.3912 58.4735C31.4443 60.1172 35.0102 59.8668 37.7404 58.127M37.7404 58.127C38.2493 57.8027 38.7293 57.4266 39.1714 57.0014M39.1714 57.0014C39.8465 56.3521 40.4335 55.5883 40.9014 54.7192C40.9494 54.6301 40.9957 54.5405 41.0405 54.4505M39.1714 57.0014C41.1372 58.1677 42.5561 58.6792 42.9865 58.2684C43.452 57.8241 42.6695 56.3887 41.0405 54.4505" stroke="#F2F2F2" stroke-linejoin="round"/>
</svg>
